<svg width="24px" height="24px" viewBox="0 0 24 24"> <g> <path d="M23.777,6.602c-0.205-1.75-0.625-2.261-0.921-2.494c-0.475-0.371-1.337-0.499-2.487-0.578 c-1.85-0.126-4.979-0.2-8.37-0.2c-3.391,0-6.519,0.074-8.368,0.2C2.482,3.609,1.619,3.738,1.144,4.108 C0.847,4.341,0.429,4.852,0.222,6.602c-0.296,2.522-0.296,8.273,0,10.796c0.207,1.749,0.625,2.26,0.922,2.492 c0.475,0.373,1.338,0.501,2.487,0.58c1.849,0.125,4.978,0.199,8.368,0.199c3.392,0,6.52-0.075,8.37-0.199 c1.15-0.079,2.011-0.207,2.487-0.58c0.296-0.232,0.716-0.743,0.921-2.492C24.074,14.875,24.074,9.125,23.777,6.602z M9.104,15.774 V8.225L16.344,12L9.104,15.774z"></path> </g> </svg>